<mxfile host="app.diagrams.net" agent="Mozilla/5.0 (X11; Ubuntu; Linux x86_64; rv:135.0) Gecko/20100101 Firefox/135.0" version="26.0.14">
  <diagram name="Page-1" id="Xl3X17k4v9aMLznZtWh4">
    <mxGraphModel dx="2195" dy="1105" grid="1" gridSize="10" guides="1" tooltips="1" connect="1" arrows="1" fold="1" page="1" pageScale="1" pageWidth="850" pageHeight="1100" math="0" shadow="0">
      <root>
        <mxCell id="0" />
        <mxCell id="1" parent="0" />
        <mxCell id="sz7HbcnAyzQZitJedubk-78" style="rounded=0;orthogonalLoop=1;jettySize=auto;html=1;exitX=1;exitY=1;exitDx=0;exitDy=0;entryX=0.5;entryY=0;entryDx=0;entryDy=0;endArrow=none;startFill=0;flowAnimation=0;shadow=1;jumpStyle=arc;strokeWidth=2;curved=1;" edge="1" parent="1" source="sz7HbcnAyzQZitJedubk-1" target="sz7HbcnAyzQZitJedubk-2">
          <mxGeometry relative="1" as="geometry" />
        </mxCell>
        <mxCell id="sz7HbcnAyzQZitJedubk-1" value="id" style="ellipse;whiteSpace=wrap;html=1;fontFamily=Comic Sans MS;shadow=1;perimeterSpacing=0;flipH=0;" vertex="1" parent="1">
          <mxGeometry x="430" y="170" width="70" height="30" as="geometry" />
        </mxCell>
        <mxCell id="sz7HbcnAyzQZitJedubk-116" style="edgeStyle=orthogonalEdgeStyle;rounded=0;orthogonalLoop=1;jettySize=auto;html=1;exitX=0.5;exitY=1;exitDx=0;exitDy=0;entryX=0;entryY=0.25;entryDx=0;entryDy=0;curved=1;strokeWidth=4;" edge="1" parent="1" source="sz7HbcnAyzQZitJedubk-2" target="sz7HbcnAyzQZitJedubk-3">
          <mxGeometry relative="1" as="geometry">
            <Array as="points">
              <mxPoint x="542" y="310" />
              <mxPoint x="522" y="310" />
              <mxPoint x="522" y="408" />
            </Array>
          </mxGeometry>
        </mxCell>
        <mxCell id="sz7HbcnAyzQZitJedubk-2" value="&lt;div&gt;Client&lt;/div&gt;" style="rounded=0;whiteSpace=wrap;html=1;" vertex="1" parent="1">
          <mxGeometry x="515" y="186" width="55" height="30" as="geometry" />
        </mxCell>
        <mxCell id="sz7HbcnAyzQZitJedubk-117" style="edgeStyle=orthogonalEdgeStyle;rounded=0;orthogonalLoop=1;jettySize=auto;html=1;exitX=0;exitY=0.5;exitDx=0;exitDy=0;entryX=0.5;entryY=0;entryDx=0;entryDy=0;curved=1;strokeWidth=3;" edge="1" parent="1" source="sz7HbcnAyzQZitJedubk-3" target="sz7HbcnAyzQZitJedubk-30">
          <mxGeometry relative="1" as="geometry">
            <Array as="points">
              <mxPoint x="495" y="440" />
              <mxPoint x="250" y="440" />
              <mxPoint x="250" y="580" />
            </Array>
          </mxGeometry>
        </mxCell>
        <mxCell id="sz7HbcnAyzQZitJedubk-3" value="Order" style="rounded=0;whiteSpace=wrap;html=1;" vertex="1" parent="1">
          <mxGeometry x="590" y="400" width="55" height="30" as="geometry" />
        </mxCell>
        <mxCell id="sz7HbcnAyzQZitJedubk-118" style="edgeStyle=none;rounded=0;orthogonalLoop=1;jettySize=auto;html=1;exitX=0;exitY=0.25;exitDx=0;exitDy=0;strokeWidth=4;" edge="1" parent="1" source="sz7HbcnAyzQZitJedubk-5" target="sz7HbcnAyzQZitJedubk-30">
          <mxGeometry relative="1" as="geometry" />
        </mxCell>
        <mxCell id="sz7HbcnAyzQZitJedubk-119" style="edgeStyle=orthogonalEdgeStyle;rounded=0;orthogonalLoop=1;jettySize=auto;html=1;exitX=0;exitY=0.5;exitDx=0;exitDy=0;entryX=0.5;entryY=0;entryDx=0;entryDy=0;strokeWidth=4;curved=1;" edge="1" parent="1" source="sz7HbcnAyzQZitJedubk-5" target="sz7HbcnAyzQZitJedubk-6">
          <mxGeometry relative="1" as="geometry" />
        </mxCell>
        <mxCell id="sz7HbcnAyzQZitJedubk-120" style="edgeStyle=orthogonalEdgeStyle;rounded=0;orthogonalLoop=1;jettySize=auto;html=1;exitX=0.75;exitY=1;exitDx=0;exitDy=0;strokeWidth=4;curved=1;" edge="1" parent="1" source="sz7HbcnAyzQZitJedubk-5" target="sz7HbcnAyzQZitJedubk-49">
          <mxGeometry relative="1" as="geometry" />
        </mxCell>
        <mxCell id="sz7HbcnAyzQZitJedubk-5" value="&lt;div&gt;Product&lt;/div&gt;" style="rounded=0;whiteSpace=wrap;html=1;" vertex="1" parent="1">
          <mxGeometry x="490" y="660" width="55" height="30" as="geometry" />
        </mxCell>
        <mxCell id="sz7HbcnAyzQZitJedubk-6" value="Promotion" style="rounded=0;whiteSpace=wrap;html=1;" vertex="1" parent="1">
          <mxGeometry x="225" y="860" width="55" height="30" as="geometry" />
        </mxCell>
        <mxCell id="sz7HbcnAyzQZitJedubk-7" value="Topping" style="rounded=0;whiteSpace=wrap;html=1;" vertex="1" parent="1">
          <mxGeometry x="555" y="1050" width="55" height="30" as="geometry" />
        </mxCell>
        <mxCell id="sz7HbcnAyzQZitJedubk-76" style="rounded=0;orthogonalLoop=1;jettySize=auto;html=1;exitX=0.5;exitY=0;exitDx=0;exitDy=0;entryX=0.5;entryY=1;entryDx=0;entryDy=0;endArrow=none;startFill=0;flowAnimation=0;shadow=1;jumpStyle=arc;strokeWidth=2;curved=1;" edge="1" parent="1" source="sz7HbcnAyzQZitJedubk-9" target="sz7HbcnAyzQZitJedubk-2">
          <mxGeometry relative="1" as="geometry" />
        </mxCell>
        <mxCell id="sz7HbcnAyzQZitJedubk-9" value="phone" style="ellipse;whiteSpace=wrap;html=1;fontFamily=Comic Sans MS;shadow=1;perimeterSpacing=0;flipH=0;" vertex="1" parent="1">
          <mxGeometry x="460" y="246" width="70" height="30" as="geometry" />
        </mxCell>
        <mxCell id="sz7HbcnAyzQZitJedubk-75" style="rounded=0;orthogonalLoop=1;jettySize=auto;html=1;exitX=0;exitY=0;exitDx=0;exitDy=0;entryX=1;entryY=0.75;entryDx=0;entryDy=0;endArrow=none;startFill=0;flowAnimation=0;shadow=1;jumpStyle=arc;strokeWidth=2;curved=1;" edge="1" parent="1" source="sz7HbcnAyzQZitJedubk-10" target="sz7HbcnAyzQZitJedubk-2">
          <mxGeometry relative="1" as="geometry" />
        </mxCell>
        <mxCell id="sz7HbcnAyzQZitJedubk-10" value="is_registered" style="ellipse;whiteSpace=wrap;html=1;fontFamily=Comic Sans MS;shadow=1;perimeterSpacing=0;flipH=0;" vertex="1" parent="1">
          <mxGeometry x="590" y="186" width="70" height="30" as="geometry" />
        </mxCell>
        <mxCell id="sz7HbcnAyzQZitJedubk-74" style="rounded=0;orthogonalLoop=1;jettySize=auto;html=1;exitX=0;exitY=0.5;exitDx=0;exitDy=0;endArrow=none;startFill=0;flowAnimation=0;shadow=1;jumpStyle=arc;strokeWidth=2;curved=1;" edge="1" parent="1" source="sz7HbcnAyzQZitJedubk-11" target="sz7HbcnAyzQZitJedubk-2">
          <mxGeometry relative="1" as="geometry" />
        </mxCell>
        <mxCell id="sz7HbcnAyzQZitJedubk-11" value="email" style="ellipse;whiteSpace=wrap;html=1;fontFamily=Comic Sans MS;shadow=1;perimeterSpacing=0;flipH=0;" vertex="1" parent="1">
          <mxGeometry x="495" y="146" width="70" height="30" as="geometry" />
        </mxCell>
        <mxCell id="sz7HbcnAyzQZitJedubk-73" style="rounded=0;orthogonalLoop=1;jettySize=auto;html=1;exitX=0;exitY=1;exitDx=0;exitDy=0;entryX=0.5;entryY=0;entryDx=0;entryDy=0;endArrow=none;startFill=0;flowAnimation=0;shadow=1;jumpStyle=arc;strokeWidth=2;curved=1;" edge="1" parent="1" source="sz7HbcnAyzQZitJedubk-12" target="sz7HbcnAyzQZitJedubk-2">
          <mxGeometry relative="1" as="geometry" />
        </mxCell>
        <mxCell id="sz7HbcnAyzQZitJedubk-12" value="registration_date" style="ellipse;whiteSpace=wrap;html=1;fontFamily=Comic Sans MS;shadow=1;perimeterSpacing=0;flipH=0;" vertex="1" parent="1">
          <mxGeometry x="580" y="150" width="71" height="26" as="geometry" />
        </mxCell>
        <mxCell id="sz7HbcnAyzQZitJedubk-83" style="rounded=0;orthogonalLoop=1;jettySize=auto;html=1;exitX=1;exitY=0.5;exitDx=0;exitDy=0;entryX=0.5;entryY=0;entryDx=0;entryDy=0;endArrow=none;startFill=0;flowAnimation=0;shadow=1;jumpStyle=arc;strokeWidth=2;curved=1;" edge="1" parent="1" source="sz7HbcnAyzQZitJedubk-13" target="sz7HbcnAyzQZitJedubk-3">
          <mxGeometry relative="1" as="geometry" />
        </mxCell>
        <mxCell id="sz7HbcnAyzQZitJedubk-13" value="id" style="ellipse;whiteSpace=wrap;html=1;fontFamily=Comic Sans MS;shadow=1;perimeterSpacing=0;flipH=0;" vertex="1" parent="1">
          <mxGeometry x="550" y="350" width="70" height="30" as="geometry" />
        </mxCell>
        <mxCell id="sz7HbcnAyzQZitJedubk-82" style="rounded=0;orthogonalLoop=1;jettySize=auto;html=1;exitX=1;exitY=0.5;exitDx=0;exitDy=0;entryX=0;entryY=0.5;entryDx=0;entryDy=0;endArrow=none;startFill=0;flowAnimation=0;shadow=1;jumpStyle=arc;strokeWidth=2;curved=1;" edge="1" parent="1" source="sz7HbcnAyzQZitJedubk-14" target="sz7HbcnAyzQZitJedubk-3">
          <mxGeometry relative="1" as="geometry" />
        </mxCell>
        <mxCell id="sz7HbcnAyzQZitJedubk-14" value="user_id" style="ellipse;whiteSpace=wrap;html=1;fontFamily=Comic Sans MS;shadow=1;perimeterSpacing=0;flipH=0;" vertex="1" parent="1">
          <mxGeometry x="510" y="426" width="70" height="30" as="geometry" />
        </mxCell>
        <mxCell id="sz7HbcnAyzQZitJedubk-81" style="rounded=0;orthogonalLoop=1;jettySize=auto;html=1;exitX=1;exitY=0;exitDx=0;exitDy=0;endArrow=none;startFill=0;flowAnimation=0;shadow=1;jumpStyle=arc;strokeWidth=2;curved=1;" edge="1" parent="1" source="sz7HbcnAyzQZitJedubk-15">
          <mxGeometry relative="1" as="geometry">
            <mxPoint x="615" y="430" as="targetPoint" />
          </mxGeometry>
        </mxCell>
        <mxCell id="sz7HbcnAyzQZitJedubk-15" value="order_time" style="ellipse;whiteSpace=wrap;html=1;fontFamily=Comic Sans MS;shadow=1;perimeterSpacing=0;flipH=0;" vertex="1" parent="1">
          <mxGeometry x="530" y="460" width="70" height="30" as="geometry" />
        </mxCell>
        <mxCell id="sz7HbcnAyzQZitJedubk-80" style="rounded=0;orthogonalLoop=1;jettySize=auto;html=1;exitX=0.5;exitY=0;exitDx=0;exitDy=0;endArrow=none;startFill=0;flowAnimation=0;shadow=1;jumpStyle=arc;strokeWidth=2;curved=1;" edge="1" parent="1" source="sz7HbcnAyzQZitJedubk-16">
          <mxGeometry relative="1" as="geometry">
            <mxPoint x="615" y="430" as="targetPoint" />
          </mxGeometry>
        </mxCell>
        <mxCell id="sz7HbcnAyzQZitJedubk-16" value="total_price" style="ellipse;whiteSpace=wrap;html=1;fontFamily=Comic Sans MS;shadow=1;perimeterSpacing=0;flipH=0;" vertex="1" parent="1">
          <mxGeometry x="620" y="440" width="70" height="30" as="geometry" />
        </mxCell>
        <mxCell id="sz7HbcnAyzQZitJedubk-79" style="rounded=0;orthogonalLoop=1;jettySize=auto;html=1;exitX=0.5;exitY=0;exitDx=0;exitDy=0;entryX=0.5;entryY=1;entryDx=0;entryDy=0;endArrow=none;startFill=0;flowAnimation=0;shadow=1;jumpStyle=arc;strokeWidth=2;curved=1;" edge="1" parent="1" source="sz7HbcnAyzQZitJedubk-17" target="sz7HbcnAyzQZitJedubk-3">
          <mxGeometry relative="1" as="geometry" />
        </mxCell>
        <mxCell id="sz7HbcnAyzQZitJedubk-17" value="delivery_method" style="ellipse;whiteSpace=wrap;html=1;fontFamily=Comic Sans MS;shadow=1;perimeterSpacing=0;flipH=0;" vertex="1" parent="1">
          <mxGeometry x="575" y="490" width="70" height="30" as="geometry" />
        </mxCell>
        <mxCell id="sz7HbcnAyzQZitJedubk-87" style="rounded=0;orthogonalLoop=1;jettySize=auto;html=1;exitX=0;exitY=0.5;exitDx=0;exitDy=0;entryX=1;entryY=0.5;entryDx=0;entryDy=0;endArrow=none;startFill=0;flowAnimation=0;shadow=1;jumpStyle=arc;strokeWidth=2;curved=1;" edge="1" parent="1" source="sz7HbcnAyzQZitJedubk-18" target="sz7HbcnAyzQZitJedubk-3">
          <mxGeometry relative="1" as="geometry" />
        </mxCell>
        <mxCell id="sz7HbcnAyzQZitJedubk-18" value="delivery_adress" style="ellipse;whiteSpace=wrap;html=1;fontFamily=Comic Sans MS;shadow=1;perimeterSpacing=0;flipH=0;" vertex="1" parent="1">
          <mxGeometry x="707.5" y="430" width="70" height="30" as="geometry" />
        </mxCell>
        <mxCell id="sz7HbcnAyzQZitJedubk-19" value="current_status" style="ellipse;whiteSpace=wrap;html=1;fontFamily=Comic Sans MS;shadow=1;perimeterSpacing=0;flipH=0;" vertex="1" parent="1">
          <mxGeometry x="680" y="400" width="71" height="26" as="geometry" />
        </mxCell>
        <mxCell id="sz7HbcnAyzQZitJedubk-20" value="status_updated_at" style="ellipse;whiteSpace=wrap;html=1;fontFamily=Comic Sans MS;shadow=1;perimeterSpacing=0;flipH=0;" vertex="1" parent="1">
          <mxGeometry x="652.5" y="360" width="70" height="30" as="geometry" />
        </mxCell>
        <mxCell id="sz7HbcnAyzQZitJedubk-84" style="rounded=0;orthogonalLoop=1;jettySize=auto;html=1;exitX=0.5;exitY=1;exitDx=0;exitDy=0;endArrow=none;startFill=0;flowAnimation=0;shadow=1;jumpStyle=arc;strokeWidth=2;curved=1;" edge="1" parent="1" source="sz7HbcnAyzQZitJedubk-21">
          <mxGeometry relative="1" as="geometry">
            <mxPoint x="615" y="400" as="targetPoint" />
          </mxGeometry>
        </mxCell>
        <mxCell id="sz7HbcnAyzQZitJedubk-21" value="item_count" style="ellipse;whiteSpace=wrap;html=1;fontFamily=Comic Sans MS;shadow=1;perimeterSpacing=0;flipH=0;" vertex="1" parent="1">
          <mxGeometry x="605" y="320" width="70" height="30" as="geometry" />
        </mxCell>
        <mxCell id="sz7HbcnAyzQZitJedubk-99" style="rounded=0;orthogonalLoop=1;jettySize=auto;html=1;exitX=1;exitY=0.5;exitDx=0;exitDy=0;entryX=0.5;entryY=0;entryDx=0;entryDy=0;endArrow=none;startFill=0;flowAnimation=0;shadow=1;jumpStyle=arc;strokeWidth=2;curved=1;" edge="1" parent="1" source="sz7HbcnAyzQZitJedubk-22" target="sz7HbcnAyzQZitJedubk-5">
          <mxGeometry relative="1" as="geometry" />
        </mxCell>
        <mxCell id="sz7HbcnAyzQZitJedubk-22" value="id" style="ellipse;whiteSpace=wrap;html=1;fontFamily=Comic Sans MS;shadow=1;perimeterSpacing=0;flipH=0;" vertex="1" parent="1">
          <mxGeometry x="445" y="610" width="70" height="30" as="geometry" />
        </mxCell>
        <mxCell id="sz7HbcnAyzQZitJedubk-100" style="rounded=0;orthogonalLoop=1;jettySize=auto;html=1;exitX=0.5;exitY=1;exitDx=0;exitDy=0;endArrow=none;startFill=0;flowAnimation=0;shadow=1;jumpStyle=arc;strokeWidth=2;curved=1;entryX=0.5;entryY=0;entryDx=0;entryDy=0;" edge="1" parent="1" source="sz7HbcnAyzQZitJedubk-23" target="sz7HbcnAyzQZitJedubk-5">
          <mxGeometry relative="1" as="geometry">
            <mxPoint x="504.89130434782624" y="670" as="targetPoint" />
          </mxGeometry>
        </mxCell>
        <mxCell id="sz7HbcnAyzQZitJedubk-23" value="name" style="ellipse;whiteSpace=wrap;html=1;fontFamily=Comic Sans MS;shadow=1;perimeterSpacing=0;flipH=0;" vertex="1" parent="1">
          <mxGeometry x="500" y="590" width="70" height="30" as="geometry" />
        </mxCell>
        <mxCell id="sz7HbcnAyzQZitJedubk-98" style="rounded=0;orthogonalLoop=1;jettySize=auto;html=1;exitX=1;exitY=0.5;exitDx=0;exitDy=0;entryX=0;entryY=0.5;entryDx=0;entryDy=0;endArrow=none;startFill=0;flowAnimation=0;shadow=1;jumpStyle=arc;strokeWidth=2;curved=1;" edge="1" parent="1" source="sz7HbcnAyzQZitJedubk-24" target="sz7HbcnAyzQZitJedubk-5">
          <mxGeometry relative="1" as="geometry" />
        </mxCell>
        <mxCell id="sz7HbcnAyzQZitJedubk-24" value="description" style="ellipse;whiteSpace=wrap;html=1;fontFamily=Comic Sans MS;shadow=1;perimeterSpacing=0;flipH=0;" vertex="1" parent="1">
          <mxGeometry x="400" y="680" width="70" height="30" as="geometry" />
        </mxCell>
        <mxCell id="sz7HbcnAyzQZitJedubk-97" style="rounded=0;orthogonalLoop=1;jettySize=auto;html=1;exitX=1;exitY=0;exitDx=0;exitDy=0;entryX=0.5;entryY=1;entryDx=0;entryDy=0;endArrow=none;startFill=0;flowAnimation=0;shadow=1;jumpStyle=arc;strokeWidth=2;curved=1;" edge="1" parent="1" source="sz7HbcnAyzQZitJedubk-25" target="sz7HbcnAyzQZitJedubk-5">
          <mxGeometry relative="1" as="geometry" />
        </mxCell>
        <mxCell id="sz7HbcnAyzQZitJedubk-25" value="price" style="ellipse;whiteSpace=wrap;html=1;fontFamily=Comic Sans MS;shadow=1;perimeterSpacing=0;flipH=0;" vertex="1" parent="1">
          <mxGeometry x="397.5" y="710" width="70" height="30" as="geometry" />
        </mxCell>
        <mxCell id="sz7HbcnAyzQZitJedubk-104" style="rounded=0;orthogonalLoop=1;jettySize=auto;html=1;exitX=0.5;exitY=0;exitDx=0;exitDy=0;entryX=0.5;entryY=1;entryDx=0;entryDy=0;endArrow=none;startFill=0;flowAnimation=0;shadow=1;jumpStyle=arc;strokeWidth=2;curved=1;" edge="1" parent="1" source="sz7HbcnAyzQZitJedubk-26" target="sz7HbcnAyzQZitJedubk-5">
          <mxGeometry relative="1" as="geometry" />
        </mxCell>
        <mxCell id="sz7HbcnAyzQZitJedubk-26" value="type" style="ellipse;whiteSpace=wrap;html=1;fontFamily=Comic Sans MS;shadow=1;perimeterSpacing=0;flipH=0;" vertex="1" parent="1">
          <mxGeometry x="430" y="740" width="70" height="30" as="geometry" />
        </mxCell>
        <mxCell id="sz7HbcnAyzQZitJedubk-103" style="rounded=0;orthogonalLoop=1;jettySize=auto;html=1;exitX=0;exitY=0;exitDx=0;exitDy=0;entryX=0.5;entryY=1;entryDx=0;entryDy=0;endArrow=none;startFill=0;flowAnimation=0;shadow=1;jumpStyle=arc;strokeWidth=2;curved=1;" edge="1" parent="1" source="sz7HbcnAyzQZitJedubk-27" target="sz7HbcnAyzQZitJedubk-5">
          <mxGeometry relative="1" as="geometry" />
        </mxCell>
        <mxCell id="sz7HbcnAyzQZitJedubk-27" value="image" style="ellipse;whiteSpace=wrap;html=1;fontFamily=Comic Sans MS;shadow=1;perimeterSpacing=0;flipH=0;" vertex="1" parent="1">
          <mxGeometry x="560" y="700" width="70" height="30" as="geometry" />
        </mxCell>
        <mxCell id="sz7HbcnAyzQZitJedubk-102" style="rounded=0;orthogonalLoop=1;jettySize=auto;html=1;exitX=0;exitY=0.5;exitDx=0;exitDy=0;entryX=1;entryY=0.5;entryDx=0;entryDy=0;endArrow=none;startFill=0;flowAnimation=0;shadow=1;jumpStyle=arc;strokeWidth=2;curved=1;" edge="1" parent="1" source="sz7HbcnAyzQZitJedubk-28" target="sz7HbcnAyzQZitJedubk-5">
          <mxGeometry relative="1" as="geometry" />
        </mxCell>
        <mxCell id="sz7HbcnAyzQZitJedubk-28" value="size" style="ellipse;whiteSpace=wrap;html=1;fontFamily=Comic Sans MS;shadow=1;perimeterSpacing=0;flipH=0;" vertex="1" parent="1">
          <mxGeometry x="567.5" y="660" width="70" height="30" as="geometry" />
        </mxCell>
        <mxCell id="sz7HbcnAyzQZitJedubk-29" value="is_custom" style="ellipse;whiteSpace=wrap;html=1;fontFamily=Comic Sans MS;shadow=1;perimeterSpacing=0;flipH=0;" vertex="1" parent="1">
          <mxGeometry x="557.5" y="620" width="70" height="30" as="geometry" />
        </mxCell>
        <mxCell id="sz7HbcnAyzQZitJedubk-30" value="Order item" style="rounded=0;whiteSpace=wrap;html=1;" vertex="1" parent="1">
          <mxGeometry x="160" y="530" width="55" height="30" as="geometry" />
        </mxCell>
        <mxCell id="sz7HbcnAyzQZitJedubk-93" style="rounded=0;orthogonalLoop=1;jettySize=auto;html=1;exitX=1;exitY=1;exitDx=0;exitDy=0;entryX=0;entryY=0.5;entryDx=0;entryDy=0;endArrow=none;startFill=0;flowAnimation=0;shadow=1;jumpStyle=arc;strokeWidth=2;curved=1;" edge="1" parent="1" source="sz7HbcnAyzQZitJedubk-31" target="sz7HbcnAyzQZitJedubk-30">
          <mxGeometry relative="1" as="geometry" />
        </mxCell>
        <mxCell id="sz7HbcnAyzQZitJedubk-31" value="id" style="ellipse;whiteSpace=wrap;html=1;fontFamily=Comic Sans MS;shadow=1;perimeterSpacing=0;flipH=0;" vertex="1" parent="1">
          <mxGeometry x="80" y="510" width="70" height="30" as="geometry" />
        </mxCell>
        <mxCell id="sz7HbcnAyzQZitJedubk-92" style="rounded=0;orthogonalLoop=1;jettySize=auto;html=1;exitX=0.5;exitY=1;exitDx=0;exitDy=0;entryX=0.5;entryY=0;entryDx=0;entryDy=0;endArrow=none;startFill=0;flowAnimation=0;shadow=1;jumpStyle=arc;strokeWidth=2;curved=1;" edge="1" parent="1" source="sz7HbcnAyzQZitJedubk-32" target="sz7HbcnAyzQZitJedubk-30">
          <mxGeometry relative="1" as="geometry" />
        </mxCell>
        <mxCell id="sz7HbcnAyzQZitJedubk-32" value="order_Id" style="ellipse;whiteSpace=wrap;html=1;fontFamily=Comic Sans MS;shadow=1;perimeterSpacing=0;flipH=0;" vertex="1" parent="1">
          <mxGeometry x="140" y="480" width="70" height="30" as="geometry" />
        </mxCell>
        <mxCell id="sz7HbcnAyzQZitJedubk-96" style="rounded=0;orthogonalLoop=1;jettySize=auto;html=1;exitX=0;exitY=0.5;exitDx=0;exitDy=0;entryX=1;entryY=0.5;entryDx=0;entryDy=0;endArrow=none;startFill=0;flowAnimation=0;shadow=1;jumpStyle=arc;strokeWidth=2;curved=1;" edge="1" parent="1" source="sz7HbcnAyzQZitJedubk-33" target="sz7HbcnAyzQZitJedubk-30">
          <mxGeometry relative="1" as="geometry" />
        </mxCell>
        <mxCell id="sz7HbcnAyzQZitJedubk-33" value="product_id" style="ellipse;whiteSpace=wrap;html=1;fontFamily=Comic Sans MS;shadow=1;perimeterSpacing=0;flipH=0;" vertex="1" parent="1">
          <mxGeometry x="230" y="520" width="70" height="30" as="geometry" />
        </mxCell>
        <mxCell id="sz7HbcnAyzQZitJedubk-95" style="rounded=0;orthogonalLoop=1;jettySize=auto;html=1;exitX=0;exitY=0;exitDx=0;exitDy=0;endArrow=none;startFill=0;flowAnimation=0;shadow=1;jumpStyle=arc;strokeWidth=2;curved=1;entryX=0.5;entryY=1;entryDx=0;entryDy=0;" edge="1" parent="1" source="sz7HbcnAyzQZitJedubk-34" target="sz7HbcnAyzQZitJedubk-30">
          <mxGeometry relative="1" as="geometry">
            <mxPoint x="180.0000000000001" y="580" as="targetPoint" />
          </mxGeometry>
        </mxCell>
        <mxCell id="sz7HbcnAyzQZitJedubk-34" value="quantity" style="ellipse;whiteSpace=wrap;html=1;fontFamily=Comic Sans MS;shadow=1;perimeterSpacing=0;flipH=0;" vertex="1" parent="1">
          <mxGeometry x="170" y="580" width="70" height="30" as="geometry" />
        </mxCell>
        <mxCell id="sz7HbcnAyzQZitJedubk-94" style="rounded=0;orthogonalLoop=1;jettySize=auto;html=1;exitX=1;exitY=0;exitDx=0;exitDy=0;entryX=0.5;entryY=1;entryDx=0;entryDy=0;endArrow=none;startFill=0;flowAnimation=0;shadow=1;jumpStyle=arc;strokeWidth=2;curved=1;" edge="1" parent="1" source="sz7HbcnAyzQZitJedubk-35" target="sz7HbcnAyzQZitJedubk-30">
          <mxGeometry relative="1" as="geometry" />
        </mxCell>
        <mxCell id="sz7HbcnAyzQZitJedubk-35" value="price" style="ellipse;whiteSpace=wrap;html=1;fontFamily=Comic Sans MS;shadow=1;perimeterSpacing=0;flipH=0;" vertex="1" parent="1">
          <mxGeometry x="80" y="560" width="70" height="30" as="geometry" />
        </mxCell>
        <mxCell id="sz7HbcnAyzQZitJedubk-108" style="rounded=0;orthogonalLoop=1;jettySize=auto;html=1;exitX=1;exitY=1;exitDx=0;exitDy=0;entryX=0.5;entryY=0;entryDx=0;entryDy=0;endArrow=none;startFill=0;flowAnimation=0;shadow=1;jumpStyle=arc;strokeWidth=2;curved=1;" edge="1" parent="1" source="sz7HbcnAyzQZitJedubk-36" target="sz7HbcnAyzQZitJedubk-6">
          <mxGeometry relative="1" as="geometry" />
        </mxCell>
        <mxCell id="sz7HbcnAyzQZitJedubk-36" value="id" style="ellipse;whiteSpace=wrap;html=1;fontFamily=Comic Sans MS;shadow=1;perimeterSpacing=0;flipH=0;" vertex="1" parent="1">
          <mxGeometry x="130" y="810" width="70" height="30" as="geometry" />
        </mxCell>
        <mxCell id="sz7HbcnAyzQZitJedubk-109" style="rounded=0;orthogonalLoop=1;jettySize=auto;html=1;exitX=0.5;exitY=1;exitDx=0;exitDy=0;entryX=0.5;entryY=0;entryDx=0;entryDy=0;endArrow=none;startFill=0;flowAnimation=0;shadow=1;jumpStyle=arc;strokeWidth=2;curved=1;" edge="1" parent="1" source="sz7HbcnAyzQZitJedubk-37" target="sz7HbcnAyzQZitJedubk-6">
          <mxGeometry relative="1" as="geometry" />
        </mxCell>
        <mxCell id="sz7HbcnAyzQZitJedubk-37" value="name" style="ellipse;whiteSpace=wrap;html=1;fontFamily=Comic Sans MS;shadow=1;perimeterSpacing=0;flipH=0;" vertex="1" parent="1">
          <mxGeometry x="200" y="790" width="70" height="30" as="geometry" />
        </mxCell>
        <mxCell id="sz7HbcnAyzQZitJedubk-110" style="rounded=0;orthogonalLoop=1;jettySize=auto;html=1;exitX=0;exitY=1;exitDx=0;exitDy=0;entryX=0.5;entryY=0;entryDx=0;entryDy=0;endArrow=none;startFill=0;flowAnimation=0;shadow=1;jumpStyle=arc;strokeWidth=2;curved=1;" edge="1" parent="1" source="sz7HbcnAyzQZitJedubk-38" target="sz7HbcnAyzQZitJedubk-6">
          <mxGeometry relative="1" as="geometry" />
        </mxCell>
        <mxCell id="sz7HbcnAyzQZitJedubk-38" value="description" style="ellipse;whiteSpace=wrap;html=1;fontFamily=Comic Sans MS;shadow=1;perimeterSpacing=0;flipH=0;" vertex="1" parent="1">
          <mxGeometry x="290" y="830" width="70" height="30" as="geometry" />
        </mxCell>
        <mxCell id="sz7HbcnAyzQZitJedubk-107" style="rounded=0;orthogonalLoop=1;jettySize=auto;html=1;exitX=1;exitY=0.5;exitDx=0;exitDy=0;entryX=0;entryY=0.5;entryDx=0;entryDy=0;endArrow=none;startFill=0;flowAnimation=0;shadow=1;jumpStyle=arc;strokeWidth=2;curved=1;" edge="1" parent="1" source="sz7HbcnAyzQZitJedubk-39" target="sz7HbcnAyzQZitJedubk-6">
          <mxGeometry relative="1" as="geometry" />
        </mxCell>
        <mxCell id="sz7HbcnAyzQZitJedubk-39" value="start_date" style="ellipse;whiteSpace=wrap;html=1;fontFamily=Comic Sans MS;shadow=1;perimeterSpacing=0;flipH=0;" vertex="1" parent="1">
          <mxGeometry x="120" y="850" width="70" height="30" as="geometry" />
        </mxCell>
        <mxCell id="sz7HbcnAyzQZitJedubk-106" style="rounded=0;orthogonalLoop=1;jettySize=auto;html=1;exitX=1;exitY=0;exitDx=0;exitDy=0;entryX=0.5;entryY=1;entryDx=0;entryDy=0;endArrow=none;startFill=0;flowAnimation=0;shadow=1;jumpStyle=arc;strokeWidth=2;curved=1;" edge="1" parent="1" source="sz7HbcnAyzQZitJedubk-40" target="sz7HbcnAyzQZitJedubk-6">
          <mxGeometry relative="1" as="geometry" />
        </mxCell>
        <mxCell id="sz7HbcnAyzQZitJedubk-40" value="end_date" style="ellipse;whiteSpace=wrap;html=1;fontFamily=Comic Sans MS;shadow=1;perimeterSpacing=0;flipH=0;" vertex="1" parent="1">
          <mxGeometry x="140" y="900" width="70" height="30" as="geometry" />
        </mxCell>
        <mxCell id="sz7HbcnAyzQZitJedubk-105" style="rounded=0;orthogonalLoop=1;jettySize=auto;html=1;exitX=0.5;exitY=0;exitDx=0;exitDy=0;entryX=0.5;entryY=1;entryDx=0;entryDy=0;endArrow=none;startFill=0;flowAnimation=0;shadow=1;jumpStyle=arc;strokeWidth=2;curved=1;" edge="1" parent="1" source="sz7HbcnAyzQZitJedubk-41" target="sz7HbcnAyzQZitJedubk-6">
          <mxGeometry relative="1" as="geometry" />
        </mxCell>
        <mxCell id="sz7HbcnAyzQZitJedubk-41" value="discount_percent" style="ellipse;whiteSpace=wrap;html=1;fontFamily=Comic Sans MS;shadow=1;perimeterSpacing=0;flipH=0;" vertex="1" parent="1">
          <mxGeometry x="240" y="940" width="70" height="30" as="geometry" />
        </mxCell>
        <mxCell id="sz7HbcnAyzQZitJedubk-112" style="rounded=0;orthogonalLoop=1;jettySize=auto;html=1;exitX=0;exitY=0.5;exitDx=0;exitDy=0;entryX=0.5;entryY=1;entryDx=0;entryDy=0;endArrow=none;startFill=0;flowAnimation=0;shadow=1;jumpStyle=arc;strokeWidth=2;curved=1;" edge="1" parent="1" source="sz7HbcnAyzQZitJedubk-42" target="sz7HbcnAyzQZitJedubk-6">
          <mxGeometry relative="1" as="geometry" />
        </mxCell>
        <mxCell id="sz7HbcnAyzQZitJedubk-42" value="is_active" style="ellipse;whiteSpace=wrap;html=1;fontFamily=Comic Sans MS;shadow=1;perimeterSpacing=0;flipH=0;" vertex="1" parent="1">
          <mxGeometry x="330" y="920" width="70" height="30" as="geometry" />
        </mxCell>
        <mxCell id="sz7HbcnAyzQZitJedubk-111" style="rounded=0;orthogonalLoop=1;jettySize=auto;html=1;exitX=0;exitY=0.5;exitDx=0;exitDy=0;entryX=1;entryY=0.5;entryDx=0;entryDy=0;endArrow=none;startFill=0;flowAnimation=0;shadow=1;jumpStyle=arc;strokeWidth=2;curved=1;" edge="1" parent="1" source="sz7HbcnAyzQZitJedubk-43" target="sz7HbcnAyzQZitJedubk-6">
          <mxGeometry relative="1" as="geometry" />
        </mxCell>
        <mxCell id="sz7HbcnAyzQZitJedubk-43" value="product_id" style="ellipse;whiteSpace=wrap;html=1;fontFamily=Comic Sans MS;shadow=1;perimeterSpacing=0;flipH=0;" vertex="1" parent="1">
          <mxGeometry x="320" y="870" width="70" height="30" as="geometry" />
        </mxCell>
        <mxCell id="sz7HbcnAyzQZitJedubk-90" style="rounded=0;orthogonalLoop=1;jettySize=auto;html=1;exitX=1;exitY=1;exitDx=0;exitDy=0;entryX=0.5;entryY=0;entryDx=0;entryDy=0;endArrow=none;startFill=0;flowAnimation=0;shadow=1;jumpStyle=arc;strokeWidth=2;curved=1;" edge="1" parent="1" source="sz7HbcnAyzQZitJedubk-44" target="sz7HbcnAyzQZitJedubk-7">
          <mxGeometry relative="1" as="geometry" />
        </mxCell>
        <mxCell id="sz7HbcnAyzQZitJedubk-44" value="id" style="ellipse;whiteSpace=wrap;html=1;fontFamily=Comic Sans MS;shadow=1;perimeterSpacing=0;flipH=0;" vertex="1" parent="1">
          <mxGeometry x="490" y="1020" width="70" height="30" as="geometry" />
        </mxCell>
        <mxCell id="sz7HbcnAyzQZitJedubk-77" style="rounded=0;orthogonalLoop=1;jettySize=auto;html=1;exitX=1;exitY=0.5;exitDx=0;exitDy=0;entryX=0;entryY=0.5;entryDx=0;entryDy=0;endArrow=none;startFill=0;flowAnimation=0;shadow=1;jumpStyle=arc;strokeWidth=2;curved=1;" edge="1" parent="1" source="sz7HbcnAyzQZitJedubk-45" target="sz7HbcnAyzQZitJedubk-2">
          <mxGeometry relative="1" as="geometry" />
        </mxCell>
        <mxCell id="sz7HbcnAyzQZitJedubk-45" value="name" style="ellipse;whiteSpace=wrap;html=1;fontFamily=Comic Sans MS;shadow=1;perimeterSpacing=0;flipH=0;" vertex="1" parent="1">
          <mxGeometry x="430" y="210" width="70" height="30" as="geometry" />
        </mxCell>
        <mxCell id="sz7HbcnAyzQZitJedubk-46" value="name" style="ellipse;whiteSpace=wrap;html=1;fontFamily=Comic Sans MS;shadow=1;perimeterSpacing=0;flipH=0;" vertex="1" parent="1">
          <mxGeometry x="582.5" y="1010" width="70" height="30" as="geometry" />
        </mxCell>
        <mxCell id="sz7HbcnAyzQZitJedubk-89" style="rounded=0;orthogonalLoop=1;jettySize=auto;html=1;exitX=0;exitY=0;exitDx=0;exitDy=0;entryX=0;entryY=0.5;entryDx=0;entryDy=0;endArrow=none;startFill=0;flowAnimation=0;shadow=1;jumpStyle=arc;strokeWidth=2;curved=1;" edge="1" parent="1" source="sz7HbcnAyzQZitJedubk-47" target="sz7HbcnAyzQZitJedubk-7">
          <mxGeometry relative="1" as="geometry" />
        </mxCell>
        <mxCell id="sz7HbcnAyzQZitJedubk-47" value="price" style="ellipse;whiteSpace=wrap;html=1;direction=south;fontFamily=Comic Sans MS;shadow=1;perimeterSpacing=0;flipH=0;" vertex="1" parent="1">
          <mxGeometry x="480" y="1070" width="70" height="30" as="geometry" />
        </mxCell>
        <mxCell id="sz7HbcnAyzQZitJedubk-88" style="rounded=0;orthogonalLoop=1;jettySize=auto;html=1;exitX=0;exitY=0;exitDx=0;exitDy=0;entryX=0.5;entryY=1;entryDx=0;entryDy=0;endArrow=none;startFill=0;flowAnimation=0;shadow=1;jumpStyle=arc;strokeWidth=2;curved=1;" edge="1" parent="1" source="sz7HbcnAyzQZitJedubk-48" target="sz7HbcnAyzQZitJedubk-7">
          <mxGeometry relative="1" as="geometry" />
        </mxCell>
        <mxCell id="sz7HbcnAyzQZitJedubk-48" value="category" style="ellipse;whiteSpace=wrap;html=1;fontFamily=Comic Sans MS;shadow=1;perimeterSpacing=0;flipH=0;" vertex="1" parent="1">
          <mxGeometry x="570" y="1090" width="70" height="30" as="geometry" />
        </mxCell>
        <mxCell id="sz7HbcnAyzQZitJedubk-49" value="Product Topping" style="rounded=0;whiteSpace=wrap;html=1;" vertex="1" parent="1">
          <mxGeometry x="707.5" y="890" width="55" height="30" as="geometry" />
        </mxCell>
        <mxCell id="sz7HbcnAyzQZitJedubk-70" style="rounded=0;orthogonalLoop=1;jettySize=auto;html=1;exitX=1;exitY=1;exitDx=0;exitDy=0;entryX=0;entryY=0.5;entryDx=0;entryDy=0;endArrow=none;startFill=0;flowAnimation=0;shadow=1;jumpStyle=arc;strokeWidth=2;curved=1;" edge="1" parent="1" source="sz7HbcnAyzQZitJedubk-50" target="sz7HbcnAyzQZitJedubk-49">
          <mxGeometry relative="1" as="geometry" />
        </mxCell>
        <mxCell id="sz7HbcnAyzQZitJedubk-50" value="is_default" style="ellipse;whiteSpace=wrap;html=1;fontFamily=Comic Sans MS;shadow=1;perimeterSpacing=0;flipH=0;" vertex="1" parent="1">
          <mxGeometry x="637.5" y="860" width="70" height="30" as="geometry" />
        </mxCell>
        <mxCell id="sz7HbcnAyzQZitJedubk-69" style="rounded=0;orthogonalLoop=1;jettySize=auto;html=1;exitX=0.5;exitY=1;exitDx=0;exitDy=0;entryX=0.5;entryY=0;entryDx=0;entryDy=0;endArrow=none;startFill=0;flowAnimation=0;shadow=1;jumpStyle=arc;strokeWidth=2;curved=1;" edge="1" parent="1" source="sz7HbcnAyzQZitJedubk-51" target="sz7HbcnAyzQZitJedubk-49">
          <mxGeometry relative="1" as="geometry" />
        </mxCell>
        <mxCell id="sz7HbcnAyzQZitJedubk-51" value="id" style="ellipse;whiteSpace=wrap;html=1;fontFamily=Comic Sans MS;shadow=1;perimeterSpacing=0;flipH=0;" vertex="1" parent="1">
          <mxGeometry x="717.5" y="850" width="70" height="30" as="geometry" />
        </mxCell>
        <mxCell id="sz7HbcnAyzQZitJedubk-71" style="rounded=0;orthogonalLoop=1;jettySize=auto;html=1;exitX=1;exitY=0;exitDx=0;exitDy=0;entryX=0;entryY=0.75;entryDx=0;entryDy=0;endArrow=none;startFill=0;flowAnimation=0;shadow=1;jumpStyle=arc;strokeWidth=2;curved=1;" edge="1" parent="1" source="sz7HbcnAyzQZitJedubk-52" target="sz7HbcnAyzQZitJedubk-49">
          <mxGeometry relative="1" as="geometry" />
        </mxCell>
        <mxCell id="sz7HbcnAyzQZitJedubk-52" value="product_id" style="ellipse;whiteSpace=wrap;html=1;fontFamily=Comic Sans MS;shadow=1;perimeterSpacing=0;flipH=0;" vertex="1" parent="1">
          <mxGeometry x="627.5" y="910" width="70" height="30" as="geometry" />
        </mxCell>
        <mxCell id="sz7HbcnAyzQZitJedubk-72" style="rounded=0;orthogonalLoop=1;jettySize=auto;html=1;exitX=0.5;exitY=0;exitDx=0;exitDy=0;entryX=0.5;entryY=1;entryDx=0;entryDy=0;endArrow=none;startFill=0;flowAnimation=0;shadow=1;jumpStyle=arc;strokeWidth=2;curved=1;" edge="1" parent="1" source="sz7HbcnAyzQZitJedubk-53" target="sz7HbcnAyzQZitJedubk-49">
          <mxGeometry relative="1" as="geometry" />
        </mxCell>
        <mxCell id="sz7HbcnAyzQZitJedubk-53" value="topping_id" style="ellipse;whiteSpace=wrap;html=1;fontFamily=Comic Sans MS;shadow=1;perimeterSpacing=0;flipH=0;" vertex="1" parent="1">
          <mxGeometry x="707.5" y="930" width="70" height="30" as="geometry" />
        </mxCell>
        <mxCell id="sz7HbcnAyzQZitJedubk-85" style="rounded=0;orthogonalLoop=1;jettySize=auto;html=1;exitX=0;exitY=0.5;exitDx=0;exitDy=0;entryX=0.455;entryY=0.003;entryDx=0;entryDy=0;entryPerimeter=0;endArrow=none;startFill=0;flowAnimation=0;shadow=1;jumpStyle=arc;strokeWidth=2;curved=1;" edge="1" parent="1" source="sz7HbcnAyzQZitJedubk-20" target="sz7HbcnAyzQZitJedubk-3">
          <mxGeometry relative="1" as="geometry" />
        </mxCell>
        <mxCell id="sz7HbcnAyzQZitJedubk-86" style="rounded=0;orthogonalLoop=1;jettySize=auto;html=1;exitX=0;exitY=0.5;exitDx=0;exitDy=0;entryX=1.032;entryY=0.394;entryDx=0;entryDy=0;entryPerimeter=0;endArrow=none;startFill=0;flowAnimation=0;shadow=1;jumpStyle=arc;strokeWidth=2;curved=1;" edge="1" parent="1" source="sz7HbcnAyzQZitJedubk-19" target="sz7HbcnAyzQZitJedubk-3">
          <mxGeometry relative="1" as="geometry" />
        </mxCell>
        <mxCell id="sz7HbcnAyzQZitJedubk-91" style="rounded=0;orthogonalLoop=1;jettySize=auto;html=1;exitX=0;exitY=1;exitDx=0;exitDy=0;entryX=0.443;entryY=0.119;entryDx=0;entryDy=0;entryPerimeter=0;endArrow=none;startFill=0;flowAnimation=0;shadow=1;jumpStyle=arc;strokeWidth=2;curved=1;" edge="1" parent="1" source="sz7HbcnAyzQZitJedubk-46" target="sz7HbcnAyzQZitJedubk-7">
          <mxGeometry relative="1" as="geometry" />
        </mxCell>
        <mxCell id="sz7HbcnAyzQZitJedubk-101" style="rounded=0;orthogonalLoop=1;jettySize=auto;html=1;exitX=0;exitY=0.5;exitDx=0;exitDy=0;entryX=0.5;entryY=0;entryDx=0;entryDy=0;endArrow=none;startFill=0;flowAnimation=0;shadow=1;jumpStyle=arc;strokeWidth=2;curved=1;" edge="1" parent="1" source="sz7HbcnAyzQZitJedubk-29" target="sz7HbcnAyzQZitJedubk-5">
          <mxGeometry relative="1" as="geometry" />
        </mxCell>
        <mxCell id="sz7HbcnAyzQZitJedubk-121" style="edgeStyle=orthogonalEdgeStyle;rounded=0;orthogonalLoop=1;jettySize=auto;html=1;exitX=1;exitY=0.5;exitDx=0;exitDy=0;entryX=0.136;entryY=1.01;entryDx=0;entryDy=0;entryPerimeter=0;strokeWidth=5;curved=1;" edge="1" parent="1" source="sz7HbcnAyzQZitJedubk-7" target="sz7HbcnAyzQZitJedubk-49">
          <mxGeometry relative="1" as="geometry" />
        </mxCell>
        <mxCell id="sz7HbcnAyzQZitJedubk-122" style="edgeStyle=none;rounded=0;orthogonalLoop=1;jettySize=auto;html=1;exitX=0.25;exitY=1;exitDx=0;exitDy=0;entryX=0.436;entryY=0.019;entryDx=0;entryDy=0;entryPerimeter=0;strokeWidth=4;" edge="1" parent="1" source="sz7HbcnAyzQZitJedubk-5" target="sz7HbcnAyzQZitJedubk-7">
          <mxGeometry relative="1" as="geometry">
            <Array as="points">
              <mxPoint x="540" y="890" />
            </Array>
          </mxGeometry>
        </mxCell>
      </root>
    </mxGraphModel>
  </diagram>
</mxfile>
